<?xml version="1.0" encoding="UTF-8" standalone="no"?>
<svg
   xmlns:dc="http://purl.org/dc/elements/1.1/"
   xmlns:cc="http://creativecommons.org/ns#"
   xmlns:rdf="http://www.w3.org/1999/02/22-rdf-syntax-ns#"
   xmlns:svg="http://www.w3.org/2000/svg"
   xmlns="http://www.w3.org/2000/svg"
   xmlns:sodipodi="http://sodipodi.sourceforge.net/DTD/sodipodi-0.dtd"
   xmlns:inkscape="http://www.inkscape.org/namespaces/inkscape"
   enable-background="new 0 0 32 32"
   id="Слой_1"
   version="1.1"
   viewBox="0 0 32 32"
   xml:space="preserve"
   sodipodi:docname="close.svg"
   inkscape:version="0.92.4 (5da689c313, 2019-01-14)"><metadata
     id="metadata20"><rdf:RDF><cc:Work
         rdf:about=""><dc:format>image/svg+xml</dc:format><dc:type
           rdf:resource="http://purl.org/dc/dcmitype/StillImage" /></cc:Work></rdf:RDF></metadata><defs
     id="defs18" /><sodipodi:namedview
     pagecolor="#ffffff"
     bordercolor="#666666"
     borderopacity="1"
     objecttolerance="10"
     gridtolerance="10"
     guidetolerance="10"
     inkscape:pageopacity="0"
     inkscape:pageshadow="2"
     inkscape:window-width="640"
     inkscape:window-height="480"
     id="namedview16"
     showgrid="false"
     inkscape:zoom="7.375"
     inkscape:cx="16"
     inkscape:cy="16"
     inkscape:window-x="0"
     inkscape:window-y="0"
     inkscape:window-maximized="0"
     inkscape:current-layer="Слой_1" /><path
     d="M17.459,16.014l8.239-8.194c0.395-0.391,0.395-1.024,0-1.414c-0.394-0.391-1.034-0.391-1.428,0  l-8.232,8.187L7.73,6.284c-0.394-0.395-1.034-0.395-1.428,0c-0.394,0.396-0.394,1.037,0,1.432l8.302,8.303l-8.332,8.286  c-0.394,0.391-0.394,1.024,0,1.414c0.394,0.391,1.034,0.391,1.428,0l8.325-8.279l8.275,8.276c0.394,0.395,1.034,0.395,1.428,0  c0.394-0.396,0.394-1.037,0-1.432L17.459,16.014z"
     fill="#121313"
     id="Close"
     style="fill:#ffffff" /><g
     id="g3"
     style="fill:#ffffff" /><g
     id="g5"
     style="fill:#ffffff" /><g
     id="g7"
     style="fill:#ffffff" /><g
     id="g9"
     style="fill:#ffffff" /><g
     id="g11"
     style="fill:#ffffff" /><g
     id="g13"
     style="fill:#ffffff" /></svg>